<svg xmlns="http://www.w3.org/2000/svg" viewBox="0 0 54.01 54.01"><title>공유 아이콘</title><g id="레이어_2" data-name="레이어 2"><g id="레이어_1-2" data-name="레이어 1"><path d="M27,54a27,27,0,1,1,7-.92A27.27,27.27,0,0,1,27,54Zm.09-51A24,24,0,1,0,50.21,20.84,24,24,0,0,0,27.07,3Z"/><path d="M40.1,14.59A2.47,2.47,0,0,1,36,16.45L24.7,21.74a5.5,5.5,0,0,1,.09,1,5.61,5.61,0,0,1-.71,2.73l7.78,5.6a2.93,2.93,0,1,1-.39,4.52l-9.56,3.81a2.7,2.7,0,1,1-.74-1.86L30.6,33.8c0-.1,0-.2,0-.3a3,3,0,0,1,.11-.8L22.8,27A5.58,5.58,0,1,1,24,19.86l11.17-5.22v-.05a2.48,2.48,0,1,1,5,0Z"/></g></g></svg>