<svg xmlns="http://www.w3.org/2000/svg" viewBox="0 0 54 54.02"><title>git</title><g id="레이어_2" data-name="레이어 2"><g id="레이어_1-2" data-name="레이어 1"><path d="M32.46,33.49a16.4,16.4,0,0,1,1.1,8,.91.91,0,0,1-.91.83H23.34a.91.91,0,0,1-.91-.86,15.43,15.43,0,0,1,.06-2.45.91.91,0,0,0-.92-1h-.21c-1.73,0-3.67-.09-4.84-1.36a12.86,12.86,0,0,1-1.33-2.17,6.63,6.63,0,0,0-.91-1.13c-.26-.24-1-.58-1.11-.88-.43-1,1.35-.6,1.76-.36a7.43,7.43,0,0,1,1.37,1.21A14.37,14.37,0,0,0,19,35.48a4.29,4.29,0,0,0,.85.44,4.25,4.25,0,0,0,2.32,0c.74-.17.68-.52.92-1.17.12-.32.26-.63.4-.94a.91.91,0,0,0-.59-1.25l-.5-.15h0a15,15,0,0,1-3.62-1.68l0,0c-2.76-1.81-4.51-4.47-4.51-7.44a8.23,8.23,0,0,1,2.24-5.51,1,1,0,0,0,.24-.81,13.3,13.3,0,0,1,.54-3.83.92.92,0,0,1,1.25-.63l3.35,1.44a.89.89,0,0,0,.58,0,16,16,0,0,1,2.85-.45,28.2,28.2,0,0,1,5.69.24A5.24,5.24,0,0,0,32.4,14c.45-.11.83-.57,1.27-.9,2.28-1.68,3.78-1.49,4.25-1s.2,3.69.06,4.84a.92.92,0,0,0,.24.74,8.26,8.26,0,0,1,2.34,5.61c0,4-3.11,7.38-7.59,9A.91.91,0,0,0,32.46,33.49Z" /><path d="M27,54A27,27,0,0,1,7.9,7.91a27,27,0,0,1,38.2,0h0A27,27,0,0,1,27,54ZM27,3a24,24,0,1,0,17,7h0A23.89,23.89,0,0,0,27,3Z"/></g></g></svg>