<svg xmlns="http://www.w3.org/2000/svg" viewBox="0 0 54.03 54.03"><defs><style>.cls-1{fill:#060001;}</style></defs><title>자산 3</title><g id="레이어_2" data-name="레이어 2"><g id="레이어_1-2" data-name="레이어 1"><path d="M27.05,54A27,27,0,0,1,13.51,3.63,27,27,0,0,1,53.09,34h0a27,27,0,0,1-26,20ZM27,3A24,24,0,0,0,6.22,39a24,24,0,0,0,44-5.79h0a24,24,0,0,0-17-29.4A24.35,24.35,0,0,0,27,3Z"/><path class="cls-1" d="M41.12,16H13.53A2.51,2.51,0,0,0,11,18.55v17a2.52,2.52,0,0,0,2.51,2.51H41.12a2.51,2.51,0,0,0,2.51-2.51v-17A2.51,2.51,0,0,0,41.12,16Zm-.52,1.63L27.33,27.26,14.05,17.67ZM42,35.54a.87.87,0,0,1-.88.88H13.53a.87.87,0,0,1-.88-.88V18.68l14.2,10.25a.81.81,0,0,0,.48.15.8.8,0,0,0,.47-.15L42,18.68Z"/><path d="M41.12,38.45H13.53a2.92,2.92,0,0,1-2.91-2.91v-17a2.91,2.91,0,0,1,2.91-2.91H41.12A2.91,2.91,0,0,1,44,18.55v17A2.91,2.91,0,0,1,41.12,38.45Zm-27.59-22a2.12,2.12,0,0,0-2.11,2.11v17a2.12,2.12,0,0,0,2.11,2.11H41.12a2.12,2.12,0,0,0,2.11-2.11v-17a2.12,2.12,0,0,0-2.11-2.11ZM41.12,36.82H13.53a1.29,1.29,0,0,1-1.28-1.28V17.89L27.09,28.61a.46.46,0,0,0,.47,0L42.4,17.89V35.54A1.28,1.28,0,0,1,41.12,36.82ZM13.05,19.47V35.54a.47.47,0,0,0,.48.48H41.12a.47.47,0,0,0,.48-.48V19.47L28,29.26a1.31,1.31,0,0,1-1.42,0Zm14.28,8.28L12.81,17.27h29Zm-12-9.68,12,8.69,12-8.69Z"/></g></g></svg>