<svg xmlns="http://www.w3.org/2000/svg" viewBox="0 0 54.01 54.01"><title>페이스북</title><g id="레이어_2" data-name="레이어 2"><g id="레이어_1-2" data-name="레이어 1"><g id="레이어_1-2-2" data-name="레이어 1-2"><path d="M27,54a27,27,0,1,1,7-.92A27.27,27.27,0,0,1,27,54Zm.09-51A24,24,0,1,0,50.21,20.84,24,24,0,0,0,27.07,3Z"/><path d="M29.43,20.12c0-.69-.11-1.25.5-1.59a15.82,15.82,0,0,1,3.36-.33h2.16V12.94a14.61,14.61,0,0,0-5.26-.41,8.09,8.09,0,0,0-4.72,2.23,6.82,6.82,0,0,0-2.14,4.76c0,2,0,3.5,0,5.3H18.27V30.7h5.08v12h6.08v-12h5.06l.76-5.88H29.43s0-2.46,0-2.69Z"/></g></g></g></svg>