<svg width="180" height="180" viewBox="0 0 180 180" fill="none" xmlns="http://www.w3.org/2000/svg">
<path d="M158.654 62.9931C158.336 55.7653 157.167 50.7963 155.493 46.4905C153.765 41.9201 151.108 37.8282 147.626 34.4266C144.225 30.972 140.106 28.2877 135.588 26.5874C131.258 24.9131 126.315 23.7443 119.087 23.4256C111.805 23.0799 109.493 23 91.0248 23C72.5562 23 70.2446 23.0799 62.9898 23.3986C55.762 23.7173 50.793 24.8871 46.4883 26.5604C41.9168 28.2877 37.8249 30.9451 34.4233 34.4266C30.9687 37.8282 28.2854 41.9471 26.5841 46.4646C24.9098 50.7963 23.741 55.7383 23.4223 62.9661C23.0766 70.2479 22.9967 72.5595 22.9967 91.0281C22.9967 109.497 23.0766 111.808 23.3953 119.063C23.714 126.291 24.8838 131.26 26.5582 135.566C28.2854 140.136 30.9687 144.228 34.4233 147.63C37.8249 151.084 41.9438 153.769 46.4613 155.469C50.793 157.143 55.735 158.312 62.9638 158.631C70.2176 158.95 72.5303 159.029 90.9989 159.029C109.467 159.029 111.779 158.95 119.034 158.631C126.262 158.312 131.231 157.143 135.535 155.469C144.677 151.934 151.905 144.707 155.44 135.566C157.113 131.234 158.283 126.291 158.601 119.063C158.92 111.808 159 109.497 159 91.0281C159 72.5595 158.973 70.2479 158.654 62.9931ZM146.405 118.532C146.112 125.175 144.996 128.762 144.066 131.154C141.78 137.08 137.077 141.783 131.151 144.069C128.759 144.999 125.146 146.115 118.528 146.407C111.354 146.727 109.202 146.805 91.0518 146.805C72.9019 146.805 70.7231 146.727 63.5742 146.407C56.9308 146.115 53.3434 144.999 50.9518 144.069C48.0028 142.979 45.3184 141.252 43.1396 138.993C40.8809 136.787 39.1536 134.13 38.0637 131.181C37.1336 128.789 36.0177 125.175 35.726 118.559C35.4063 111.384 35.3274 109.231 35.3274 91.0811C35.3274 72.9312 35.4063 70.7523 35.726 63.6045C36.0177 56.9611 37.1336 53.3737 38.0637 50.9821C39.1536 48.032 40.8809 45.3487 43.1666 43.1689C45.3714 40.9101 48.0287 39.1828 50.9788 38.0939C53.3704 37.1639 56.9848 36.048 63.6012 35.7553C70.776 35.4366 72.9289 35.3567 91.0778 35.3567C109.255 35.3567 111.406 35.4366 118.555 35.7553C125.199 36.048 128.786 37.1639 131.178 38.0939C134.127 39.1828 136.811 40.9101 138.99 43.1689C141.249 45.3747 142.976 48.032 144.066 50.9821C144.996 53.3737 146.112 56.9871 146.405 63.6045C146.723 70.7793 146.803 72.9312 146.803 91.0811C146.803 109.231 146.723 111.357 146.405 118.532Z" fill="white"/>
<path d="M91.0248 56.084C71.7331 56.084 56.0807 71.7353 56.0807 91.0281C56.0807 110.321 71.7331 125.972 91.0248 125.972C110.318 125.972 125.969 110.321 125.969 91.0281C125.969 71.7353 110.318 56.084 91.0248 56.084ZM91.0248 113.695C78.5093 113.695 68.3574 103.545 68.3574 91.0281C68.3574 78.5116 78.5093 68.3607 91.0248 68.3607C103.541 68.3607 113.692 78.5116 113.692 91.0281C113.692 103.545 103.541 113.695 91.0248 113.695V113.695Z" fill="white"/>
<path d="M135.51 54.7023C135.51 59.2074 131.857 62.8602 127.351 62.8602C122.846 62.8602 119.193 59.2074 119.193 54.7023C119.193 50.1963 122.846 46.5445 127.351 46.5445C131.857 46.5445 135.51 50.1963 135.51 54.7023V54.7023Z" fill="white"/>
</svg>
