<svg xmlns="http://www.w3.org/2000/svg" xmlns:xlink="http://www.w3.org/1999/xlink" viewBox="0 0 79.29 102.81"><defs><style>.cls-1,.cls-10,.cls-3{fill:#fff;}.cls-1,.cls-10,.cls-12,.cls-2,.cls-6{stroke:#231815;}.cls-1,.cls-10,.cls-12,.cls-2,.cls-5,.cls-6{stroke-miterlimit:10;}.cls-1,.cls-12,.cls-2,.cls-5,.cls-6{stroke-width:2px;}.cls-2,.cls-7{fill:#b2815d;}.cls-4{clip-path:url(#clip-path);}.cls-11,.cls-5{fill:#231815;}.cls-5{stroke:#fff;opacity:0.8;}.cls-12,.cls-6{fill:none;}.cls-8{clip-path:url(#clip-path-2);}.cls-9{fill:#906e54;}.cls-12{stroke-linecap:round;}</style><clipPath id="clip-path"><path class="cls-1" d="M31,60.65s-5.53,19-5.3,21.81,4.39,8.09,18.21,5.86,13-9,13-9l-6.7-17.68Z"/></clipPath><clipPath id="clip-path-2"><path class="cls-2" d="M71.86,25.23a27.33,27.33,0,0,1,1.22,8.12c0,15.16-12.32,27.63-28.15,29.24h0a32.65,32.65,0,0,1-3.45.18C24,62.77,9.85,49.6,9.85,33.35c0-.54,0-1.08.05-1.61A12.36,12.36,0,1,1,21.47,10.55a32.28,32.28,0,0,1,9.2-4.87,33.86,33.86,0,0,1,23.93.9A13,13,0,1,1,71.86,25.23Z"/></clipPath></defs><g id="레이어_2" data-name="레이어 2"><g id="레이어_1-2" data-name="레이어 1"><path class="cls-2" d="M31,60.65S7.81,70.74,11,77.16s18.81-3.63,18.81-3.63Z"/><path class="cls-2" d="M54.89,59.48S77,64.32,72.27,72.83c-3.08,5.53-17.38,0-17.38,0Z"/><path class="cls-2" d="M29.18,61.73C26.31,66.39,15.3,86,23.08,100.55a2.34,2.34,0,0,0,2.06,1.26H37.6a2.3,2.3,0,0,0,2.29-2l.41-3.5a2.32,2.32,0,0,1,2.36-2l2.29.07a2.3,2.3,0,0,1,2.21,2l.54,3.58a2.31,2.31,0,0,0,2.28,2H60.51a2.3,2.3,0,0,0,2.19-1.59c1.47-4.51,4.85-17.83-1.73-29.67C52.9,56,54.89,59.48,54.89,59.48L31,60.65A2.31,2.31,0,0,0,29.18,61.73Z"/><path class="cls-3" d="M31,60.65s-5.53,19-5.3,21.81,4.39,8.09,18.21,5.86,13-9,13-9l-6.7-17.68Z"/><g class="cls-4"><ellipse class="cls-5" cx="40.53" cy="62" rx="11.7" ry="3.64"/></g><path class="cls-6" d="M31,60.65s-5.53,19-5.3,21.81,4.39,8.09,18.21,5.86,13-9,13-9l-6.7-17.68Z"/><path class="cls-7" d="M71.86,25.23a27.33,27.33,0,0,1,1.22,8.12c0,15.16-12.32,27.63-28.15,29.24h0a32.65,32.65,0,0,1-3.45.18C24,62.77,9.85,49.6,9.85,33.35c0-.54,0-1.08.05-1.61A12.36,12.36,0,1,1,21.47,10.55a32.28,32.28,0,0,1,9.2-4.87,33.86,33.86,0,0,1,23.93.9A13,13,0,1,1,71.86,25.23Z"/><g class="cls-8"><path class="cls-9" d="M10.78,31.74S12,41.29,17.71,48.27c6.19,7.55,17.2,12.62,25.31,14C58.65,65,8.53,59.65,8,59.13S6.27,33.35,6.27,33.35l4.51-1.61"/></g><path class="cls-6" d="M71.86,25.23a27.33,27.33,0,0,1,1.22,8.12c0,15.16-12.32,27.63-28.15,29.24h0a32.65,32.65,0,0,1-3.45.18C24,62.77,9.85,49.6,9.85,33.35c0-.54,0-1.08.05-1.61A12.36,12.36,0,1,1,21.47,10.55a32.28,32.28,0,0,1,9.2-4.87,33.86,33.86,0,0,1,23.93.9A13,13,0,1,1,71.86,25.23Z"/><ellipse class="cls-10" cx="43.46" cy="46.84" rx="17.75" ry="10.86"/><ellipse class="cls-11" cx="43.46" cy="38.28" rx="5.1" ry="1.82" transform="translate(-8.43 12.55) rotate(-15)"/><circle class="cls-11" cx="31.06" cy="35.98" r="2.23"/><circle class="cls-11" cx="52.46" cy="33.35" r="2.23"/><path class="cls-12" d="M43.93,40s1.87,7.83.45,9.69"/><path class="cls-11" d="M16.53,16a5.73,5.73,0,0,0-6.29,9.57Z"/><path class="cls-11" d="M68.79,18.87A5.62,5.62,0,0,0,70.44,16,5.72,5.72,0,0,0,61,10.52Z"/><circle class="cls-3" cx="29.83" cy="34.54" r="0.79"/><circle class="cls-3" cx="51.51" cy="31.89" r="0.79"/></g></g></svg>