<svg width="50" height="50" viewBox="0 0 50 50" fill="none" xmlns="http://www.w3.org/2000/svg">
<path fill-rule="evenodd" clip-rule="evenodd" d="M15.4882 15.4882C16.139 14.8373 17.1943 14.8373 17.8452 15.4882L25 22.643L32.1548 15.4882C32.8057 14.8373 33.861 14.8373 34.5118 15.4882C35.1627 16.139 35.1627 17.1943 34.5118 17.8452L27.357 25L34.5118 32.1548C35.1627 32.8057 35.1627 33.861 34.5118 34.5118C33.861 35.1627 32.8057 35.1627 32.1548 34.5118L25 27.357L17.8452 34.5118C17.1943 35.1627 16.139 35.1627 15.4882 34.5118C14.8373 33.861 14.8373 32.8057 15.4882 32.1548L22.643 25L15.4882 17.8452C14.8373 17.1943 14.8373 16.139 15.4882 15.4882Z" fill="black"/>
</svg>
