<svg width="180" height="180" viewBox="0 0 180 180" fill="none" xmlns="http://www.w3.org/2000/svg">
<g clip-path="url(#clip0)">
<path d="M153.97 154V153.995H154V110.352C154 89.0012 149.404 72.5544 124.443 72.5544C112.444 72.5544 104.392 79.1391 101.105 85.3817H100.757V74.5477H77.0913V153.995H101.734V114.656C101.734 104.298 103.698 94.2819 116.525 94.2819C129.164 94.2819 129.352 106.103 129.352 115.32V154H153.97Z" fill="white"/>
<path d="M36.9635 74.5526H61.6362V154H36.9635V74.5526Z" fill="white"/>
<path d="M49.2899 35C41.4012 35 35 41.4012 35 49.2899C35 57.1786 41.4012 63.7137 49.2899 63.7137C57.1786 63.7137 63.5798 57.1786 63.5798 49.2899C63.5749 41.4012 57.1737 35 49.2899 35V35Z" fill="white"/>
</g>
<defs>
<clipPath id="clip0">
<rect width="119" height="119" fill="white" transform="translate(35 35)"/>
</clipPath>
</defs>
</svg>
