<svg width="180" height="180" viewBox="0 0 180 180" fill="none" xmlns="http://www.w3.org/2000/svg">
<path d="M147.069 59.6928L158 49.2794V47H120.131L93.1419 113.892L62.4368 47H22.7296V49.2794L35.4992 64.5869C36.7436 65.7181 37.3943 67.3722 37.2288 69.0377V129.194C37.6227 131.359 36.9148 133.588 35.385 135.162L21 152.522V154.773H61.786V152.493L47.401 135.162C45.8427 133.582 45.1063 131.393 45.4202 129.194V77.1604L81.2229 154.801H85.3843L116.169 77.1604V139.01C116.169 140.642 116.169 140.977 115.096 142.046L104.022 152.715V155H157.749V152.721L147.074 142.313C146.138 141.608 145.653 140.426 145.853 139.277V62.7282C145.653 61.5743 146.132 60.392 147.069 59.6928V59.6928Z" fill="white"/>
</svg>
