<svg xmlns="http://www.w3.org/2000/svg" viewBox="0 0 54.03 54.03"><defs><style>.cls-1{fill:#0f0f0f;}</style></defs><title>자산 2</title><g id="레이어_2" data-name="레이어 2"><g id="레이어_1-2" data-name="레이어 1"><path d="M27,54A27,27,0,0,1,3.63,13.51,27,27,0,0,1,53.1,20,27,27,0,0,1,27,54Zm.09-51a24.23,24.23,0,0,0-6.25.83,24,24,0,0,0-5.8,44,24,24,0,0,0,35.19-27A24,24,0,0,0,27.06,3Z"/><path class="cls-1" d="M26.88,35.47a7.92,7.92,0,1,1,7.93-7.92A7.93,7.93,0,0,1,26.88,35.47Zm0-13a5,5,0,1,0,5,5A5,5,0,0,0,26.88,22.51Z"/><path class="cls-1" d="M34.67,42.67H19.1a7.35,7.35,0,0,1-7.34-7.34V19.77a7.35,7.35,0,0,1,7.34-7.34H34.67A7.34,7.34,0,0,1,42,19.77V35.33A7.34,7.34,0,0,1,34.67,42.67ZM19.1,15.31a4.46,4.46,0,0,0-4.46,4.46V35.33a4.46,4.46,0,0,0,4.46,4.46H34.67a4.46,4.46,0,0,0,4.45-4.46V19.77a4.46,4.46,0,0,0-4.45-4.46Z"/><circle class="cls-1" cx="34.08" cy="19.63" r="2.16"/></g></g></svg>