<svg xmlns="http://www.w3.org/2000/svg" viewBox="0 0 54.01 54.01"><title>트위터</title><g id="레이어_2" data-name="레이어 2"><g id="레이어_1-2" data-name="레이어 1"><path d="M27,54a27,27,0,1,1,7-.92A27.27,27.27,0,0,1,27,54Zm.09-51A24,24,0,1,0,50.21,20.84,24,24,0,0,0,27.07,3Z"/><path d="M39,21.36s.33,11-8.34,15.92-14.36,2.18-18.89,0c0,0,5.29.5,9-2.74,0,0-3.53.77-5.75-4.29a9.22,9.22,0,0,0,2.71-.15c.5-.28-4.14.36-5-6.21a18.48,18.48,0,0,0,2.9.79s-4.72-3.93-2-8.43c0,0,6.92,7.79,13,6.67a6.06,6.06,0,0,1-.2-1.56A6.27,6.27,0,0,1,37.21,17a11,11,0,0,0,4-1.46A5.65,5.65,0,0,1,38.54,19a14.63,14.63,0,0,0,3.44-.9S39.51,21.23,39,21.36Z"/></g></g></svg>