<svg xmlns="http://www.w3.org/2000/svg" viewBox="0 0 54.01 54.01"><title>라이크 아이콘</title><g id="레이어_2" data-name="레이어 2"><g id="레이어_1-2" data-name="레이어 1"><path d="M27,54a27,27,0,1,1,7-.92A27.27,27.27,0,0,1,27,54Zm.09-51A24,24,0,1,0,50.21,20.84,24,24,0,0,0,27.07,3Z"/><path d="M27,42.57,13.53,31.43A8.35,8.35,0,0,1,20,16.72a6.28,6.28,0,0,1,3.56,1.82L27,21.91l3.38-3.36A6.39,6.39,0,0,1,34,16.71a8.35,8.35,0,0,1,8.7,4.65A8.23,8.23,0,0,1,43.5,25a8.34,8.34,0,0,1-3,6.45ZM18.85,19.63a5.36,5.36,0,0,0-3.41,9.49L27,38.68l11.56-9.56a5.36,5.36,0,0,0-4.17-9.43,3.42,3.42,0,0,0-1.89,1L27,26.13l-5.52-5.46a3.38,3.38,0,0,0-1.87-1A4.87,4.87,0,0,0,18.85,19.63Z"/></g></g></svg>