<svg width="20" height="20" viewBox="0 0 20 20" fill="none" xmlns="http://www.w3.org/2000/svg">
<g clip-path="url(#clip0)">
<path d="M9.99445 19.9889C8.241 19.9877 6.51873 19.5252 5.00055 18.6479C3.48237 17.7705 2.22173 16.5092 1.3452 14.9906C0.468667 13.4719 0.00709845 11.7494 0.00683605 9.99595C0.00657365 8.2425 0.467627 6.51984 1.3437 5.00093C2.3311 3.28807 3.80433 1.90654 5.57703 1.03111C7.34972 0.155679 9.34224 -0.174325 11.3025 0.0828449C13.2628 0.340015 15.1028 1.17281 16.5897 2.47587C18.0766 3.77893 19.1436 5.49371 19.6558 7.4033C20.0535 8.88498 20.1048 10.4383 19.8057 11.943C19.5066 13.4477 18.8651 14.8634 17.9309 16.0803C16.9968 17.2972 15.795 18.2827 14.4187 18.9605C13.0424 19.6383 11.5286 19.9902 9.99445 19.9889ZM10.0278 1.1105C9.2465 1.11171 8.46874 1.215 7.71424 1.41774C6.01336 1.86977 4.48506 2.8168 3.32321 4.1387C2.16135 5.4606 1.4183 7.0978 1.1883 8.84263C0.9583 10.5875 1.25172 12.3613 2.03134 13.9391C2.81095 15.5169 4.04164 16.8276 5.56728 17.705C7.08912 18.5846 8.83771 18.9931 10.5918 18.8786C12.3458 18.7641 14.0265 18.1318 15.421 17.0618C16.8156 15.9918 17.8614 14.5321 18.4261 12.8675C18.9908 11.2029 19.049 9.40823 18.5934 7.71054C18.0903 5.81939 16.9769 4.14728 15.426 2.95383C13.8751 1.76039 11.9736 1.1124 10.0167 1.1105H10.0278Z" fill="black"/>
<path d="M9.95004 13.1297C9.37036 13.129 8.80391 12.9564 8.32228 12.6339C7.84065 12.3113 7.46546 11.8531 7.24414 11.3174C7.02281 10.7816 6.96528 10.1923 7.07882 9.62382C7.19236 9.05537 7.47187 8.53333 7.88202 8.1237C8.29217 7.71406 8.81456 7.43521 9.38315 7.32239C9.95175 7.20957 10.541 7.26784 11.0765 7.48984C11.612 7.71185 12.0696 8.08761 12.3916 8.56965C12.7136 9.05168 12.8854 9.61835 12.8854 10.198C12.8845 10.9759 12.5748 11.7216 12.0244 12.2713C11.474 12.821 10.7279 13.1297 9.95004 13.1297ZM9.95004 8.31759C9.58398 8.31759 9.22614 8.42614 8.92178 8.62951C8.61741 8.83289 8.38018 9.12194 8.2401 9.46014C8.10002 9.79833 8.06336 10.1705 8.13478 10.5295C8.20619 10.8885 8.38247 11.2183 8.64131 11.4771C8.90015 11.736 9.22994 11.9123 9.58896 11.9837C9.94799 12.0551 10.3201 12.0184 10.6583 11.8784C10.9965 11.7383 11.2856 11.501 11.4889 11.1967C11.6923 10.8923 11.8009 10.5345 11.8009 10.1684C11.797 9.68012 11.6002 9.21315 11.2536 8.86925C10.9069 8.52535 10.4384 8.33238 9.95004 8.3324V8.31759Z" fill="#0F0F0F"/>
<path d="M12.8336 15.7949H7.07016C6.34986 15.794 5.65935 15.5074 5.15002 14.9981C4.6407 14.4887 4.35413 13.7982 4.35315 13.0779V7.31817C4.35413 6.59788 4.6407 5.90737 5.15002 5.39804C5.65935 4.88871 6.34986 4.60215 7.07016 4.60117H12.8336C13.5536 4.60215 14.2437 4.88883 14.7524 5.39827C15.2612 5.9077 15.5469 6.59822 15.5469 7.31817V13.0779C15.5469 13.7979 15.2612 14.4884 14.7524 14.9978C14.2437 15.5073 13.5536 15.794 12.8336 15.7949ZM7.07016 5.66724C6.6323 5.66724 6.21238 5.84118 5.90277 6.15079C5.59316 6.4604 5.41922 6.88032 5.41922 7.31817V13.0779C5.41922 13.2947 5.46193 13.5094 5.54489 13.7097C5.62786 13.91 5.74947 14.092 5.90277 14.2453C6.05607 14.3986 6.23807 14.5202 6.43837 14.6032C6.63867 14.6862 6.85335 14.7289 7.07016 14.7289H12.8336C13.2708 14.7279 13.6898 14.5535 13.9986 14.244C14.3074 13.9345 14.4809 13.5152 14.4809 13.0779V7.31817C14.4809 6.88096 14.3074 6.4616 13.9986 6.15209C13.6898 5.84259 13.2708 5.66822 12.8336 5.66724H7.07016Z" fill="#0F0F0F"/>
<path d="M12.6152 8.06591C13.0568 8.06591 13.4148 7.70793 13.4148 7.26635C13.4148 6.82477 13.0568 6.4668 12.6152 6.4668C12.1736 6.4668 11.8157 6.82477 11.8157 7.26635C11.8157 7.70793 12.1736 8.06591 12.6152 8.06591Z" fill="#0F0F0F"/>
</g>
<defs>
<clipPath id="clip0">
<rect width="20" height="20" fill="white"/>
</clipPath>
</defs>
</svg>
